<mxfile host="app.diagrams.net" modified="2022-09-08T16:23:53.457Z" agent="5.0 (Windows NT 10.0; Win64; x64) AppleWebKit/537.36 (KHTML, like Gecko) Chrome/105.0.0.0 Safari/537.36" etag="vg6d7wI-YdZwFiwyW9DM" version="20.3.0" type="github">
  <diagram id="q_2Nq4qBhpx0mNt8syKB" name="Page-1">
    <mxGraphModel dx="1422" dy="794" grid="1" gridSize="10" guides="1" tooltips="1" connect="1" arrows="1" fold="1" page="1" pageScale="1" pageWidth="850" pageHeight="800" math="0" shadow="0">
      <root>
        <mxCell id="0" />
        <mxCell id="1" parent="0" />
        <mxCell id="4egMWVXxjZmKBKd3I0E_-1" value="Player" style="ellipse;shape=umlEntity;whiteSpace=wrap;html=1;" vertex="1" parent="1">
          <mxGeometry x="155" y="410" width="80" height="80" as="geometry" />
        </mxCell>
        <mxCell id="4egMWVXxjZmKBKd3I0E_-2" value="Team" style="ellipse;shape=umlEntity;whiteSpace=wrap;html=1;" vertex="1" parent="1">
          <mxGeometry x="635" y="410" width="80" height="80" as="geometry" />
        </mxCell>
        <mxCell id="4egMWVXxjZmKBKd3I0E_-3" value="plays_for" style="rhombus;whiteSpace=wrap;html=1;" vertex="1" parent="1">
          <mxGeometry x="395" y="410" width="80" height="80" as="geometry" />
        </mxCell>
        <mxCell id="4egMWVXxjZmKBKd3I0E_-4" value="" style="endArrow=none;html=1;rounded=0;entryX=0;entryY=0.5;entryDx=0;entryDy=0;exitX=1;exitY=0.5;exitDx=0;exitDy=0;" edge="1" parent="1" source="4egMWVXxjZmKBKd3I0E_-1" target="4egMWVXxjZmKBKd3I0E_-3">
          <mxGeometry width="50" height="50" relative="1" as="geometry">
            <mxPoint x="295" y="470" as="sourcePoint" />
            <mxPoint x="345" y="420" as="targetPoint" />
          </mxGeometry>
        </mxCell>
        <mxCell id="4egMWVXxjZmKBKd3I0E_-5" value="" style="endArrow=none;html=1;rounded=0;entryX=0;entryY=0.5;entryDx=0;entryDy=0;exitX=1;exitY=0.5;exitDx=0;exitDy=0;" edge="1" parent="1" source="4egMWVXxjZmKBKd3I0E_-3" target="4egMWVXxjZmKBKd3I0E_-2">
          <mxGeometry width="50" height="50" relative="1" as="geometry">
            <mxPoint x="535" y="570" as="sourcePoint" />
            <mxPoint x="585" y="520" as="targetPoint" />
          </mxGeometry>
        </mxCell>
        <mxCell id="4egMWVXxjZmKBKd3I0E_-6" value="N" style="text;html=1;strokeColor=none;fillColor=none;align=center;verticalAlign=middle;whiteSpace=wrap;rounded=0;" vertex="1" parent="1">
          <mxGeometry x="355" y="430" width="60" height="30" as="geometry" />
        </mxCell>
        <mxCell id="4egMWVXxjZmKBKd3I0E_-7" value="1" style="text;html=1;strokeColor=none;fillColor=none;align=center;verticalAlign=middle;whiteSpace=wrap;rounded=0;" vertex="1" parent="1">
          <mxGeometry x="455" y="430" width="60" height="30" as="geometry" />
        </mxCell>
        <mxCell id="4egMWVXxjZmKBKd3I0E_-8" value="first name" style="ellipse;whiteSpace=wrap;html=1;" vertex="1" parent="1">
          <mxGeometry x="335" y="540" width="80" height="50" as="geometry" />
        </mxCell>
        <mxCell id="4egMWVXxjZmKBKd3I0E_-9" value="last name" style="ellipse;whiteSpace=wrap;html=1;" vertex="1" parent="1">
          <mxGeometry x="265" y="590" width="80" height="50" as="geometry" />
        </mxCell>
        <mxCell id="4egMWVXxjZmKBKd3I0E_-10" value="alias" style="ellipse;whiteSpace=wrap;html=1;" vertex="1" parent="1">
          <mxGeometry x="195" y="340" width="80" height="50" as="geometry" />
        </mxCell>
        <mxCell id="4egMWVXxjZmKBKd3I0E_-12" value="streaming site" style="ellipse;whiteSpace=wrap;html=1;" vertex="1" parent="1">
          <mxGeometry x="75" y="350" width="80" height="50" as="geometry" />
        </mxCell>
        <mxCell id="4egMWVXxjZmKBKd3I0E_-13" value="social media" style="ellipse;whiteSpace=wrap;html=1;" vertex="1" parent="1">
          <mxGeometry x="45" y="450" width="80" height="50" as="geometry" />
        </mxCell>
        <mxCell id="4egMWVXxjZmKBKd3I0E_-15" value="wins" style="ellipse;whiteSpace=wrap;html=1;" vertex="1" parent="1">
          <mxGeometry x="35" y="540" width="80" height="50" as="geometry" />
        </mxCell>
        <mxCell id="4egMWVXxjZmKBKd3I0E_-17" value="losses" style="ellipse;whiteSpace=wrap;html=1;" vertex="1" parent="1">
          <mxGeometry x="95" y="590" width="80" height="50" as="geometry" />
        </mxCell>
        <mxCell id="4egMWVXxjZmKBKd3I0E_-18" value="ties" style="ellipse;whiteSpace=wrap;html=1;" vertex="1" parent="1">
          <mxGeometry x="185" y="610" width="80" height="50" as="geometry" />
        </mxCell>
        <mxCell id="4egMWVXxjZmKBKd3I0E_-19" value="hometown" style="ellipse;whiteSpace=wrap;html=1;" vertex="1" parent="1">
          <mxGeometry x="305" y="470" width="80" height="50" as="geometry" />
        </mxCell>
        <mxCell id="4egMWVXxjZmKBKd3I0E_-20" value="wins" style="ellipse;whiteSpace=wrap;html=1;" vertex="1" parent="1">
          <mxGeometry x="510" y="470" width="80" height="50" as="geometry" />
        </mxCell>
        <mxCell id="4egMWVXxjZmKBKd3I0E_-21" value="losses" style="ellipse;whiteSpace=wrap;html=1;" vertex="1" parent="1">
          <mxGeometry x="635" y="550" width="80" height="50" as="geometry" />
        </mxCell>
        <mxCell id="4egMWVXxjZmKBKd3I0E_-22" value="ties" style="ellipse;whiteSpace=wrap;html=1;" vertex="1" parent="1">
          <mxGeometry x="735" y="490" width="80" height="50" as="geometry" />
        </mxCell>
        <mxCell id="4egMWVXxjZmKBKd3I0E_-23" value="name" style="ellipse;whiteSpace=wrap;html=1;" vertex="1" parent="1">
          <mxGeometry x="735" y="390" width="80" height="50" as="geometry" />
        </mxCell>
        <mxCell id="4egMWVXxjZmKBKd3I0E_-25" value="location" style="ellipse;whiteSpace=wrap;html=1;" vertex="1" parent="1">
          <mxGeometry x="630" y="320" width="80" height="50" as="geometry" />
        </mxCell>
        <mxCell id="4egMWVXxjZmKBKd3I0E_-26" value="titles" style="ellipse;whiteSpace=wrap;html=1;" vertex="1" parent="1">
          <mxGeometry x="510" y="390" width="80" height="50" as="geometry" />
        </mxCell>
        <mxCell id="4egMWVXxjZmKBKd3I0E_-28" value="" style="endArrow=none;html=1;rounded=0;" edge="1" parent="1" source="4egMWVXxjZmKBKd3I0E_-19" target="4egMWVXxjZmKBKd3I0E_-1">
          <mxGeometry width="50" height="50" relative="1" as="geometry">
            <mxPoint x="385" y="620" as="sourcePoint" />
            <mxPoint x="435" y="570" as="targetPoint" />
          </mxGeometry>
        </mxCell>
        <mxCell id="4egMWVXxjZmKBKd3I0E_-29" value="" style="endArrow=none;html=1;rounded=0;" edge="1" parent="1" source="4egMWVXxjZmKBKd3I0E_-1" target="4egMWVXxjZmKBKd3I0E_-8">
          <mxGeometry width="50" height="50" relative="1" as="geometry">
            <mxPoint x="385" y="620" as="sourcePoint" />
            <mxPoint x="435" y="570" as="targetPoint" />
          </mxGeometry>
        </mxCell>
        <mxCell id="4egMWVXxjZmKBKd3I0E_-30" value="" style="endArrow=none;html=1;rounded=0;" edge="1" parent="1" source="4egMWVXxjZmKBKd3I0E_-1" target="4egMWVXxjZmKBKd3I0E_-18">
          <mxGeometry width="50" height="50" relative="1" as="geometry">
            <mxPoint x="395" y="630" as="sourcePoint" />
            <mxPoint x="445" y="580" as="targetPoint" />
          </mxGeometry>
        </mxCell>
        <mxCell id="4egMWVXxjZmKBKd3I0E_-31" value="" style="endArrow=none;html=1;rounded=0;" edge="1" parent="1" source="4egMWVXxjZmKBKd3I0E_-1" target="4egMWVXxjZmKBKd3I0E_-9">
          <mxGeometry width="50" height="50" relative="1" as="geometry">
            <mxPoint x="385" y="620" as="sourcePoint" />
            <mxPoint x="435" y="570" as="targetPoint" />
          </mxGeometry>
        </mxCell>
        <mxCell id="4egMWVXxjZmKBKd3I0E_-32" value="" style="endArrow=none;html=1;rounded=0;" edge="1" parent="1" source="4egMWVXxjZmKBKd3I0E_-1" target="4egMWVXxjZmKBKd3I0E_-17">
          <mxGeometry width="50" height="50" relative="1" as="geometry">
            <mxPoint x="385" y="620" as="sourcePoint" />
            <mxPoint x="435" y="570" as="targetPoint" />
          </mxGeometry>
        </mxCell>
        <mxCell id="4egMWVXxjZmKBKd3I0E_-33" value="" style="endArrow=none;html=1;rounded=0;" edge="1" parent="1" source="4egMWVXxjZmKBKd3I0E_-1" target="4egMWVXxjZmKBKd3I0E_-15">
          <mxGeometry width="50" height="50" relative="1" as="geometry">
            <mxPoint x="385" y="620" as="sourcePoint" />
            <mxPoint x="435" y="570" as="targetPoint" />
          </mxGeometry>
        </mxCell>
        <mxCell id="4egMWVXxjZmKBKd3I0E_-34" value="" style="endArrow=none;html=1;rounded=0;" edge="1" parent="1" source="4egMWVXxjZmKBKd3I0E_-1" target="4egMWVXxjZmKBKd3I0E_-13">
          <mxGeometry width="50" height="50" relative="1" as="geometry">
            <mxPoint x="385" y="620" as="sourcePoint" />
            <mxPoint x="435" y="570" as="targetPoint" />
          </mxGeometry>
        </mxCell>
        <mxCell id="4egMWVXxjZmKBKd3I0E_-36" value="" style="endArrow=none;html=1;rounded=0;" edge="1" parent="1" source="4egMWVXxjZmKBKd3I0E_-1" target="4egMWVXxjZmKBKd3I0E_-10">
          <mxGeometry width="50" height="50" relative="1" as="geometry">
            <mxPoint x="385" y="620" as="sourcePoint" />
            <mxPoint x="435" y="570" as="targetPoint" />
          </mxGeometry>
        </mxCell>
        <mxCell id="4egMWVXxjZmKBKd3I0E_-37" value="" style="endArrow=none;html=1;rounded=0;" edge="1" parent="1" source="4egMWVXxjZmKBKd3I0E_-1" target="4egMWVXxjZmKBKd3I0E_-12">
          <mxGeometry width="50" height="50" relative="1" as="geometry">
            <mxPoint x="385" y="620" as="sourcePoint" />
            <mxPoint x="435" y="570" as="targetPoint" />
          </mxGeometry>
        </mxCell>
        <mxCell id="4egMWVXxjZmKBKd3I0E_-38" value="" style="endArrow=none;html=1;rounded=0;" edge="1" parent="1" source="4egMWVXxjZmKBKd3I0E_-20" target="4egMWVXxjZmKBKd3I0E_-2">
          <mxGeometry width="50" height="50" relative="1" as="geometry">
            <mxPoint x="385" y="620" as="sourcePoint" />
            <mxPoint x="435" y="570" as="targetPoint" />
          </mxGeometry>
        </mxCell>
        <mxCell id="4egMWVXxjZmKBKd3I0E_-39" value="" style="endArrow=none;html=1;rounded=0;" edge="1" parent="1" source="4egMWVXxjZmKBKd3I0E_-21" target="4egMWVXxjZmKBKd3I0E_-2">
          <mxGeometry width="50" height="50" relative="1" as="geometry">
            <mxPoint x="385" y="620" as="sourcePoint" />
            <mxPoint x="435" y="570" as="targetPoint" />
          </mxGeometry>
        </mxCell>
        <mxCell id="4egMWVXxjZmKBKd3I0E_-40" value="" style="endArrow=none;html=1;rounded=0;" edge="1" parent="1" source="4egMWVXxjZmKBKd3I0E_-22" target="4egMWVXxjZmKBKd3I0E_-2">
          <mxGeometry width="50" height="50" relative="1" as="geometry">
            <mxPoint x="385" y="620" as="sourcePoint" />
            <mxPoint x="435" y="570" as="targetPoint" />
          </mxGeometry>
        </mxCell>
        <mxCell id="4egMWVXxjZmKBKd3I0E_-41" value="" style="endArrow=none;html=1;rounded=0;" edge="1" parent="1" source="4egMWVXxjZmKBKd3I0E_-26" target="4egMWVXxjZmKBKd3I0E_-2">
          <mxGeometry width="50" height="50" relative="1" as="geometry">
            <mxPoint x="385" y="620" as="sourcePoint" />
            <mxPoint x="435" y="570" as="targetPoint" />
          </mxGeometry>
        </mxCell>
        <mxCell id="4egMWVXxjZmKBKd3I0E_-42" value="" style="endArrow=none;html=1;rounded=0;" edge="1" parent="1" source="4egMWVXxjZmKBKd3I0E_-2" target="4egMWVXxjZmKBKd3I0E_-23">
          <mxGeometry width="50" height="50" relative="1" as="geometry">
            <mxPoint x="385" y="620" as="sourcePoint" />
            <mxPoint x="435" y="570" as="targetPoint" />
          </mxGeometry>
        </mxCell>
        <mxCell id="4egMWVXxjZmKBKd3I0E_-43" value="" style="endArrow=none;html=1;rounded=0;" edge="1" parent="1" source="4egMWVXxjZmKBKd3I0E_-2" target="4egMWVXxjZmKBKd3I0E_-25">
          <mxGeometry width="50" height="50" relative="1" as="geometry">
            <mxPoint x="385" y="620" as="sourcePoint" />
            <mxPoint x="435" y="570" as="targetPoint" />
          </mxGeometry>
        </mxCell>
        <mxCell id="4egMWVXxjZmKBKd3I0E_-45" value="sponsor" style="ellipse;shape=umlEntity;whiteSpace=wrap;html=1;" vertex="1" parent="1">
          <mxGeometry x="570" y="635" width="80" height="80" as="geometry" />
        </mxCell>
        <mxCell id="4egMWVXxjZmKBKd3I0E_-46" value="name" style="ellipse;whiteSpace=wrap;html=1;" vertex="1" parent="1">
          <mxGeometry x="670" y="665" width="80" height="50" as="geometry" />
        </mxCell>
        <mxCell id="4egMWVXxjZmKBKd3I0E_-47" value="" style="endArrow=none;html=1;rounded=0;" edge="1" parent="1" source="4egMWVXxjZmKBKd3I0E_-45" target="4egMWVXxjZmKBKd3I0E_-46">
          <mxGeometry width="50" height="50" relative="1" as="geometry">
            <mxPoint x="280" y="560" as="sourcePoint" />
            <mxPoint x="330" y="510" as="targetPoint" />
          </mxGeometry>
        </mxCell>
        <mxCell id="4egMWVXxjZmKBKd3I0E_-48" value="sponsored_by" style="rhombus;whiteSpace=wrap;html=1;" vertex="1" parent="1">
          <mxGeometry x="380" y="635" width="100" height="80" as="geometry" />
        </mxCell>
        <mxCell id="4egMWVXxjZmKBKd3I0E_-49" value="" style="endArrow=none;html=1;rounded=0;" edge="1" parent="1" source="4egMWVXxjZmKBKd3I0E_-48" target="4egMWVXxjZmKBKd3I0E_-45">
          <mxGeometry width="50" height="50" relative="1" as="geometry">
            <mxPoint x="280" y="560" as="sourcePoint" />
            <mxPoint x="330" y="510" as="targetPoint" />
          </mxGeometry>
        </mxCell>
        <mxCell id="4egMWVXxjZmKBKd3I0E_-50" value="" style="endArrow=none;html=1;rounded=0;" edge="1" parent="1" source="4egMWVXxjZmKBKd3I0E_-1" target="4egMWVXxjZmKBKd3I0E_-48">
          <mxGeometry width="50" height="50" relative="1" as="geometry">
            <mxPoint x="280" y="560" as="sourcePoint" />
            <mxPoint x="330" y="510" as="targetPoint" />
          </mxGeometry>
        </mxCell>
        <mxCell id="4egMWVXxjZmKBKd3I0E_-51" value="" style="endArrow=none;html=1;rounded=0;" edge="1" parent="1" source="4egMWVXxjZmKBKd3I0E_-48" target="4egMWVXxjZmKBKd3I0E_-2">
          <mxGeometry width="50" height="50" relative="1" as="geometry">
            <mxPoint x="280" y="560" as="sourcePoint" />
            <mxPoint x="330" y="510" as="targetPoint" />
          </mxGeometry>
        </mxCell>
        <mxCell id="4egMWVXxjZmKBKd3I0E_-56" value="N" style="text;html=1;strokeColor=none;fillColor=none;align=center;verticalAlign=middle;whiteSpace=wrap;rounded=0;" vertex="1" parent="1">
          <mxGeometry x="355" y="635" width="60" height="30" as="geometry" />
        </mxCell>
        <mxCell id="4egMWVXxjZmKBKd3I0E_-57" value="N" style="text;html=1;strokeColor=none;fillColor=none;align=center;verticalAlign=middle;whiteSpace=wrap;rounded=0;" vertex="1" parent="1">
          <mxGeometry x="420" y="630" width="60" height="30" as="geometry" />
        </mxCell>
        <mxCell id="4egMWVXxjZmKBKd3I0E_-58" value="N" style="text;html=1;strokeColor=none;fillColor=none;align=center;verticalAlign=middle;whiteSpace=wrap;rounded=0;" vertex="1" parent="1">
          <mxGeometry x="455" y="675" width="60" height="30" as="geometry" />
        </mxCell>
        <mxCell id="4egMWVXxjZmKBKd3I0E_-62" value="game" style="ellipse;shape=umlEntity;whiteSpace=wrap;html=1;" vertex="1" parent="1">
          <mxGeometry x="400" y="100" width="80" height="80" as="geometry" />
        </mxCell>
        <mxCell id="4egMWVXxjZmKBKd3I0E_-63" value="plays" style="rhombus;whiteSpace=wrap;html=1;" vertex="1" parent="1">
          <mxGeometry x="400" y="240" width="80" height="80" as="geometry" />
        </mxCell>
        <mxCell id="4egMWVXxjZmKBKd3I0E_-64" value="" style="endArrow=none;html=1;rounded=0;" edge="1" parent="1" source="4egMWVXxjZmKBKd3I0E_-1" target="4egMWVXxjZmKBKd3I0E_-63">
          <mxGeometry width="50" height="50" relative="1" as="geometry">
            <mxPoint x="280" y="330" as="sourcePoint" />
            <mxPoint x="330" y="280" as="targetPoint" />
          </mxGeometry>
        </mxCell>
        <mxCell id="4egMWVXxjZmKBKd3I0E_-65" value="" style="endArrow=none;html=1;rounded=0;" edge="1" parent="1" source="4egMWVXxjZmKBKd3I0E_-63" target="4egMWVXxjZmKBKd3I0E_-62">
          <mxGeometry width="50" height="50" relative="1" as="geometry">
            <mxPoint x="280" y="330" as="sourcePoint" />
            <mxPoint x="330" y="280" as="targetPoint" />
          </mxGeometry>
        </mxCell>
        <mxCell id="4egMWVXxjZmKBKd3I0E_-66" value="1" style="text;html=1;strokeColor=none;fillColor=none;align=center;verticalAlign=middle;whiteSpace=wrap;rounded=0;" vertex="1" parent="1">
          <mxGeometry x="360" y="280" width="60" height="30" as="geometry" />
        </mxCell>
        <mxCell id="4egMWVXxjZmKBKd3I0E_-67" value="1" style="text;html=1;strokeColor=none;fillColor=none;align=center;verticalAlign=middle;whiteSpace=wrap;rounded=0;" vertex="1" parent="1">
          <mxGeometry x="425" y="220" width="60" height="30" as="geometry" />
        </mxCell>
        <mxCell id="4egMWVXxjZmKBKd3I0E_-68" value="name" style="ellipse;whiteSpace=wrap;html=1;" vertex="1" parent="1">
          <mxGeometry x="530" y="115" width="80" height="50" as="geometry" />
        </mxCell>
        <mxCell id="4egMWVXxjZmKBKd3I0E_-69" value="" style="endArrow=none;html=1;rounded=0;" edge="1" parent="1" source="4egMWVXxjZmKBKd3I0E_-62" target="4egMWVXxjZmKBKd3I0E_-68">
          <mxGeometry width="50" height="50" relative="1" as="geometry">
            <mxPoint x="280" y="330" as="sourcePoint" />
            <mxPoint x="330" y="280" as="targetPoint" />
          </mxGeometry>
        </mxCell>
        <mxCell id="4egMWVXxjZmKBKd3I0E_-70" value="platform" style="ellipse;whiteSpace=wrap;html=1;" vertex="1" parent="1">
          <mxGeometry x="275" y="115" width="80" height="50" as="geometry" />
        </mxCell>
        <mxCell id="4egMWVXxjZmKBKd3I0E_-71" value="" style="endArrow=none;html=1;rounded=0;" edge="1" parent="1" source="4egMWVXxjZmKBKd3I0E_-70" target="4egMWVXxjZmKBKd3I0E_-62">
          <mxGeometry width="50" height="50" relative="1" as="geometry">
            <mxPoint x="280" y="330" as="sourcePoint" />
            <mxPoint x="330" y="280" as="targetPoint" />
          </mxGeometry>
        </mxCell>
      </root>
    </mxGraphModel>
  </diagram>
</mxfile>
